<?xml version="1.0" encoding="UTF-8" standalone="no"?>
<!-- Created with Inkscape (http://www.inkscape.org/) -->

<svg
   width="210mm"
   height="297mm"
   viewBox="0 0 210 297"
   version="1.1"
   id="svg1"
   inkscape:version="1.4 (86a8ad7, 2024-10-11)"
   sodipodi:docname="patern1.svg"
   xmlns:inkscape="http://www.inkscape.org/namespaces/inkscape"
   xmlns:sodipodi="http://sodipodi.sourceforge.net/DTD/sodipodi-0.dtd"
   xmlns="http://www.w3.org/2000/svg"
   xmlns:svg="http://www.w3.org/2000/svg">
  <sodipodi:namedview
     id="namedview1"
     pagecolor="#ffffff"
     bordercolor="#000000"
     borderopacity="0.25"
     inkscape:showpageshadow="2"
     inkscape:pageopacity="0.0"
     inkscape:pagecheckerboard="0"
     inkscape:deskcolor="#d1d1d1"
     inkscape:document-units="mm"
     inkscape:zoom="0.50000001"
     inkscape:cx="-75.999998"
     inkscape:cy="-13"
     inkscape:window-width="1920"
     inkscape:window-height="1094"
     inkscape:window-x="-11"
     inkscape:window-y="-11"
     inkscape:window-maximized="1"
     inkscape:current-layer="layer1"
     showgrid="false" />
  <defs
     id="defs1">
    <clipPath
       clipPathUnits="userSpaceOnUse"
       id="clipPath30">
      <path
         id="path31"
         style="fill:#ff0000;fill-opacity:1;fill-rule:nonzero;stroke:none;stroke-width:0.264583"
         d="m 57.777869,29.340844 v 6.022372 c 0.03864,-0.141171 0.08053,-0.281442 0.116788,-0.42323 0.0767,-0.406831 0.122388,-0.814874 0.252182,-1.209228 0.03096,-0.06945 0.06013,-0.139705 0.09302,-0.208256 0.03019,-0.06292 0.06596,-0.123095 0.09612,-0.186037 0.06272,-0.130881 0.105232,-0.275407 0.173632,-0.403074 0.05195,-0.09695 0.111684,-0.189412 0.167434,-0.28422 0.246004,-0.356214 0.560007,-0.657522 0.924491,-0.890903 0.187796,-0.120245 0.385054,-0.225684 0.576191,-0.340548 0.493866,-0.287054 0.977117,-0.591298 1.455209,-0.903819 0.180215,-0.119631 0.387667,-0.192826 0.575159,-0.297659 0.03322,-0.01857 0.05893,-0.04819 0.08992,-0.07028 0.13398,-0.09549 0.419055,-0.283639 0.54002,-0.364318 0.258328,-0.156676 0.52161,-0.30492 0.791165,-0.440802 z m 10.810709,0 c 0.02005,0.113472 0.03196,0.227836 0.02635,0.344165 0.0067,0.24987 0.02789,0.499756 0.02119,0.749827 -0.04054,0.472657 -0.178718,0.875249 -0.476975,1.250569 -0.07038,0.08857 -0.141851,0.163848 -0.213423,0.229444 0.06018,0.356994 0.128458,0.711959 0.173633,1.07125 0.04953,0.484801 0.03637,0.972838 0.03256,1.459344 -0.0047,0.456697 -0.0056,0.913744 -0.0057,1.370459 2.22e-4,0.575146 0.0011,1.149813 0.0011,1.724959 3.7e-5,0.466699 1.3e-5,0.933731 0,1.400432 -1.1e-5,0.386456 -3e-6,0.772644 0,1.159103 v 1.023709 1.245918 0.621668 0.542602 c 0.0055,0.05611 -0.0024,0.112734 0,0.168984 1.9e-4,-0.01095 7.93e-4,-0.02283 0.0052,-0.01913 0.01836,0.01513 0.05998,0.268322 0.06408,0.290422 0.05106,0.266158 0.0974,0.539287 0.11679,0.817002 0.01304,0.262604 0.0053,0.525849 0.0026,0.788585 -0.0021,0.226531 -0.0024,0.453004 -0.0021,0.679545 2.65e-4,0.204724 5.29e-4,0.409189 5.29e-4,0.613916 -8e-6,0.252211 8e-6,0.504846 0,0.757057 v 0.588079 0.68833 c 0.008,0.247459 0.0634,0.492175 0.08785,0.739489 0.02522,0.321458 0.07621,0.639855 0.09715,0.962215 0.0039,0.07326 0.01585,0.145481 0.02532,0.218075 H 79.170919 V 29.340836 Z m -2.887679,1.204061 c -0.0024,0.01037 -0.0033,0.01318 -0.0057,0.02429 -0.0051,0.02297 0.01151,0.09182 0.01601,0.06873 0.0057,-0.02945 -7.94e-4,-0.06095 -0.01035,-0.09302 z m -0.810286,0.528651 c -0.0062,-0.0026 5.29e-4,0.01693 -0.0057,0.01963 -0.0011,0.02183 0.06208,0.01709 0.05116,0.03462 -0.02008,0.03221 -0.06172,0.04394 -0.0925,0.06615 -0.05546,0.04003 -0.110037,0.08217 -0.166396,0.120922 -0.152996,0.105196 -0.309285,0.204904 -0.464056,0.307475 -0.368408,0.270323 -0.809442,0.415251 -1.191656,0.659908 -0.205214,0.127204 -0.346303,0.329758 -0.534334,0.476973 -0.0768,0.06013 -0.160266,0.111662 -0.240298,0.167431 -0.251034,0.165962 -0.535699,0.321376 -0.641305,0.619085 -0.128079,0.345101 -0.185711,0.710742 -0.289904,1.063501 -0.128603,0.450516 -0.318344,0.879848 -0.472839,1.321366 -0.138753,0.380201 -0.172503,0.774316 -0.216525,1.172022 -0.06498,0.541136 -0.06277,1.086831 -0.06304,1.630907 -0.0046,0.52123 7.93e-4,1.040369 0.04599,1.559595 0.05951,0.503534 0.130545,1.001887 0.150895,1.509469 -0.0096,0.299072 0.02871,0.603459 0.0026,0.902271 -0.0067,0.07629 0.0032,0.159407 -0.03204,0.227375 -0.02,0.03855 -0.04314,0.07572 -0.06666,0.112139 0.06294,0.113821 0.128034,0.229555 0.188618,0.337963 0.360506,0.603377 0.66502,1.237583 0.996323,1.856734 0.16995,0.317614 0.317379,0.600692 0.552937,0.870749 0.04352,0.02721 0.100145,0.07935 0.160713,0.07545 0.02101,-0.0013 7.94e-4,-0.02674 0.0093,-0.03204 0.03351,-0.02096 0.07694,-0.01688 0.115755,-0.02429 0.419399,-0.130807 0.621961,-0.164608 1.099156,0.05995 0.318672,0.149958 0.503957,0.487069 0.694531,0.754475 0.18311,0.341294 0.317495,0.705898 0.404627,1.081588 0.169175,0.153603 0.323004,0.331848 0.39791,0.543118 0.05159,0.145505 0.01542,0.292012 -0.05323,0.428916 0.0075,0.01595 0.01434,0.03228 0.02119,0.04857 0.124036,0.08286 0.24952,0.163576 0.376206,0.242363 0.193275,0.03428 0.386225,0.095 0.568441,0.150379 0.06329,0.01924 0.116279,0.04296 0.174149,0.06459 0.124616,-0.06331 0.25119,-0.122121 0.37052,-0.179834 0.07344,-0.03552 0.143742,-0.0656 0.210841,-0.09095 -0.01328,-0.107815 -0.02344,-0.215974 -0.02119,-0.325046 v -0.688329 c 0,-0.196162 -6e-6,-0.39243 0,-0.588595 2e-6,-0.252177 5.29e-4,-0.504365 5.29e-4,-0.756542 -8e-6,-0.204295 -2.01e-4,-0.408588 -5.29e-4,-0.612883 -2.65e-4,-0.23173 -5.3e-4,-0.463325 0.0016,-0.695047 0.0024,-0.227523 0.0093,-0.455184 0.0011,-0.682646 -0.01299,-0.224092 -0.05244,-0.442847 -0.09818,-0.661977 -0.03691,-0.22814 -0.115829,-0.451766 -0.09147,-0.686779 V 42.991685 42.370018 41.1241 40.10039 c 0,-0.386471 -1.1e-5,-0.772631 0,-1.159102 1.3e-5,-0.466625 3.7e-5,-0.933292 0,-1.399916 -7.4e-5,-0.575273 -2.33e-4,-1.150721 -5.29e-4,-1.725994 0,-0.460255 7.93e-4,-0.920554 0.0057,-1.380791 0.0033,-0.425215 0.01564,-0.851816 -0.02223,-1.275892 -0.0444,-0.364072 -0.119623,-0.72272 -0.175183,-1.085207 -0.02697,-0.238051 -0.07351,-0.472811 -0.114205,-0.708483 -0.40994,0.08939 -0.830463,-0.0026 -1.223698,-0.128156 -0.118049,-0.03263 -0.21219,-0.115877 -0.322977,-0.163299 z m -7.112744,12.122258 v 7.631057 h 6.434233 c -0.135578,-0.112363 -0.273296,-0.22221 -0.407728,-0.335896 -0.170778,5.29e-4 -0.336476,-0.0024 -0.474906,-0.0041 -0.525256,-0.005 -1.09619,-0.02701 -1.536856,-0.353986 -0.09468,-0.07025 -0.171283,-0.162274 -0.256834,-0.243395 -0.231785,-0.288256 -0.41498,-0.610484 -0.670758,-0.878499 -0.223007,-0.269364 -0.403135,-0.57572 -0.64234,-0.831474 -0.238577,-0.25267 -0.407617,-0.557007 -0.609264,-0.837674 -0.145632,-0.212122 -0.263297,-0.440595 -0.407728,-0.65319 C 58.941219,46.36901 58.778132,45.987216 58.58092,45.62616 58.38534,45.245658 58.253683,44.836599 58.094129,44.440187 57.948282,44.072961 57.84936,43.69739 57.79027,43.306407 c -0.0038,-0.03694 -0.0085,-0.07367 -0.01241,-0.110588 z" />
    </clipPath>
    <clipPath
       clipPathUnits="userSpaceOnUse"
       id="clipPath42">
      <path
         id="path43"
         style="fill:#ff0000;fill-opacity:1;fill-rule:nonzero;stroke:none;stroke-width:0.264583"
         d="M 7.1717039,21.418692 V 54.201186 H 23.377433 c -0.03857,-0.948116 -0.08828,-1.895647 -0.163297,-2.841686 -0.04805,-1.058415 -0.07621,-2.116307 -0.05116,-3.176032 -4.23e-4,-1.391613 -0.01522,-2.783324 -0.109554,-4.172355 -0.02511,-0.421542 -0.06992,-1.106014 -0.07752,-1.524973 -0.02451,-1.35916 0.03225,-2.720076 -5.29e-4,-4.079338 -0.02524,-1.846792 -0.109601,-3.690731 -0.194821,-5.535578 0.0099,-1.433574 0.05301,-2.865904 0.107487,-4.298448 0.02372,-1.560346 0.06455,-3.120273 0.0646,-4.680849 0.02192,-0.750488 0.05013,-1.499071 0.128157,-2.246376 0.013,-0.124532 0.01798,-0.144182 0.02739,-0.226859 z m 20.6731571,0 c 0.09679,0.07723 0.195831,0.151712 0.290938,0.230994 0.04495,0.0078 0.08997,0.01318 0.134876,0.02273 0.512702,0.163864 1.008186,0.386069 1.488797,0.627869 0.180443,0.121179 0.370052,0.22487 0.561724,0.325046 0.06651,-0.220887 0.120655,-0.444402 0.12609,-0.680061 0.0049,-0.210886 0.04033,-0.383887 0.09354,-0.526584 z m 3.835941,0 c 0.04466,0.101764 0.07997,0.217905 0.100254,0.350882 0.262879,0.01627 0.523052,0.0575 0.750339,0.178284 0.165296,0.08786 0.131752,0.35161 0.172601,0.534334 0.04246,0.189963 0.05789,0.385014 0.07648,0.578776 0.02466,0.256966 0.03734,0.513599 0.04702,0.770496 0.158697,-0.05512 0.323461,-0.09486 0.484209,-0.144693 0.01564,0.009 0.03306,0.01577 0.04909,0.02429 0.03733,-0.03714 0.02008,-0.01786 0.07028,-0.0677 0.06496,-0.06971 0.129572,-0.139854 0.194821,-0.209291 0.08434,-0.122896 0.166544,-0.247084 0.253214,-0.368453 0.562176,-0.704146 0.336801,-0.709332 1.489316,0.316777 0.0549,0.04887 -0.06316,0.133136 -0.10232,0.195337 -0.0349,0.05543 -0.0743,0.107458 -0.112138,0.160713 0.095,0.0373 0.193463,0.09585 0.293007,0.170016 0.04478,0.0059 0.08958,0.01283 0.134358,0.01654 0.190103,0.147637 0.429075,0.247729 0.569992,0.442867 0.113816,0.157615 0.144875,0.351743 0.142108,0.546219 0.100237,0.152654 0.202057,0.304266 0.303858,0.455785 0.06299,0.0089 0.126322,0.01468 0.188619,0.02842 1.251545,0.276331 2.380755,1.053298 3.118157,2.093412 0.477975,0.674188 0.492156,0.944444 0.708482,1.69757 0.02347,0.271684 0.06928,0.542242 0.07028,0.814937 0.0027,0.713526 -0.152805,1.570231 -0.3545,2.257227 -0.0141,0.04808 -0.03132,0.09366 -0.04754,0.140044 0.04615,0.131675 0.0929,0.263295 0.128156,0.398425 0.0537,0.205849 0.0958,0.414899 0.143661,0.622184 0.05375,0.236987 0.09454,0.475951 0.131776,0.715719 V 21.418692 Z m -7.302396,1.190109 c -0.02764,0.440399 -0.04374,0.881517 -0.05633,1.322398 3.97e-4,1.554334 -0.04047,3.108158 -0.06408,4.662249 -0.05374,1.428779 -0.09769,2.857291 -0.107487,4.287076 0.0887,1.835269 0.16952,3.670323 0.19482,5.507675 0.03296,1.366999 -0.02403,2.735175 5.29e-4,4.102076 0.0062,0.346075 0.05441,1.096137 0.07493,1.439188 0.09593,1.416058 0.111124,2.83532 0.111621,4.254005 -0.02513,1.039199 0.003,2.076138 0.05013,3.114022 0.02566,0.31995 0.04398,0.640373 0.06408,0.960662 0.0065,-0.0066 0.0091,-0.01117 0.01602,-0.0181 0.209106,-0.206475 0.485719,-0.225578 0.754476,-0.257349 0.400493,-0.05558 0.805734,-0.07564 1.194759,-0.195855 0.46853,-0.102466 0.961062,-0.136544 1.399915,-0.34158 0.04509,-0.08355 0.08886,-0.167807 0.133325,-0.251664 0.459126,-0.70616 0.930324,-1.00489 1.736844,-1.183907 0.286671,-0.04017 0.578086,-0.0597 0.858864,0.0067 0.124908,-0.04345 0.250079,-0.08511 0.375688,-0.126605 5.29e-4,-7.94e-4 0.0011,-0.0013 0.0016,-0.0021 0.383971,-0.384564 0.771218,-0.772938 1.215946,-1.087789 0.283085,-0.185653 0.56774,-0.366538 0.867648,-0.524516 0.362066,-0.190719 0.464354,-0.220252 0.838189,-0.405143 0.157234,-0.07776 0.311727,-0.160515 0.467672,-0.240813 0.281681,-0.156903 0.565711,-0.309666 0.843362,-0.472321 0.04944,-0.04323 0.09769,-0.08795 0.147794,-0.130225 0.451591,-0.350084 0.824439,-0.783344 1.244883,-1.166855 0.107762,-0.107731 0.227055,-0.202719 0.34675,-0.297138 0.140888,-0.21019 0.270812,-0.426995 0.330213,-0.674894 0.10541,-0.382309 0.21073,-0.766349 0.388607,-1.122928 0.156707,-0.264695 0.273058,-0.551598 0.413411,-0.824757 0.179303,-0.421365 0.321998,-0.857242 0.489892,-1.283126 0.203766,-0.608296 0.323715,-1.241502 0.371555,-1.881539 0.0061,-0.109615 0.01167,-0.219067 0.0181,-0.328663 0.0041,-0.06902 -0.0531,-0.186762 0.01291,-0.207222 0.0075,-0.0024 0.0091,-0.0029 0.01654,-0.0052 -0.0052,-0.139724 0.01127,-0.232069 0.119891,-0.243914 7.94e-4,-0.651682 0.03024,-1.303261 0.04961,-1.954919 -0.01376,-0.572701 -0.03286,-1.145371 -0.07906,-1.716175 -0.02778,-0.242364 -0.04595,-0.39664 -0.06563,-0.564822 -0.306422,0.273918 -0.670034,0.41956 -1.12603,0.147278 -0.48501,-0.289611 -0.485198,-0.911781 -0.55604,-1.368909 -0.01342,-0.464056 -0.0352,-0.927309 -0.06563,-1.390097 -0.05137,-0.102262 -0.105547,-0.203066 -0.147277,-0.310574 -0.138131,-0.355838 -0.203925,-0.73702 -0.271301,-1.110527 -0.05093,-0.440079 -0.08319,-0.87049 -0.06976,-1.31413 0.0034,-0.110884 -0.05022,-0.253881 -0.02429,-0.354502 -0.393017,-0.372777 -0.81897,-0.712759 -1.227315,-1.067118 -0.04048,-0.0342 -0.08202,-0.06747 -0.122475,-0.101803 -0.177356,0.310388 -0.392295,0.557781 -0.598414,0.42478 -0.809582,-0.522401 -0.781269,-0.884139 -0.6351,-1.370459 -0.02585,-0.01614 -0.05084,-0.03342 -0.077,-0.04909 -0.137549,0.03235 -0.279294,0.06668 -0.489892,0.124539 -0.217295,0.0597 -1.23943,0.461568 -1.463477,0.296622 -0.770239,-0.567055 -0.574011,-0.793835 -0.343133,-1.216462 0.0191,-0.03119 0.03829,-0.06235 0.05736,-0.09353 -0.133945,-0.07852 -0.273039,-0.161893 -0.497644,-0.284221 -0.05731,-0.03121 -0.01619,-0.129595 -0.0186,-0.194821 -0.0055,-0.151479 -5.3e-4,-0.303752 0.0036,-0.455784 -0.359036,-0.276704 -0.717444,-0.554196 -1.068152,-0.841293 -0.366244,-0.21835 -0.761881,-0.382918 -1.123962,-0.607714 -0.144981,0.151123 -0.372658,0.228423 -0.545703,0.3545 -0.165984,-0.01169 -0.334863,-0.0032 -0.498161,-0.03514 -0.318012,-0.06226 -0.747819,-0.301662 -1.055233,-0.425815 -0.19018,-0.07681 -0.323446,-0.107077 -0.518314,-0.160197 -0.257456,-0.06983 -0.545525,-0.07947 -0.788583,-0.199469 -0.0076,-0.0038 -0.01469,-0.0085 -0.02222,-0.01241 0.0034,0.123235 -0.0024,0.238331 -0.100252,0.275952 -1.050007,0.4039 -1.315599,0.05342 -1.330151,-0.644406 -0.01703,-0.05419 -0.03537,-0.107918 -0.05478,-0.161229 z m 3.766695,0.856795 c 0.003,0.01103 0.0067,0.02267 0.0093,0.03359 0.005,0.02098 0.06838,0.05084 0.05478,0.03411 -0.01968,-0.02421 -0.04275,-0.04502 -0.06408,-0.0677 z m 10.360607,4.459676 c 0.0069,0.01 0.01318,0.02053 0.02016,0.03049 0.09715,0.148688 0.342921,0.520798 0.427878,0.666628 0.07405,0.127098 0.141764,0.257255 0.20619,0.389123 -0.05501,-0.190905 -0.12954,-0.375044 -0.29559,-0.628385 -0.103454,-0.157843 -0.226142,-0.310558 -0.358634,-0.457854 z m -0.267684,5.83737 c -0.02146,0.0076 -0.04423,0.01114 -0.06511,0.02016 -0.03613,0.01556 -0.05512,0.143955 -0.02946,0.114205 0.0358,-0.04151 0.0661,-0.08731 0.09457,-0.134358 z m 2.446364,2.905765 c -7.94e-4,0.0011 -0.0021,0.0011 -0.0031,0.0021 -5.29e-4,0.03169 -5.29e-4,0.06341 -0.0011,0.09509 -0.0019,0.09164 -0.0061,0.183266 -0.0088,0.274918 0.0044,0.18742 0.0089,0.374843 0.01291,0.562239 z m 0,10.048484 c -0.05568,0.392475 -0.120814,0.784 -0.259416,1.157552 -0.06466,0.174273 -0.14832,0.34119 -0.223758,0.511079 -0.251508,0.566407 -0.220208,0.489953 -0.502296,1.081588 -0.470355,0.963189 -1.042262,1.866604 -1.748213,2.674255 -0.384093,0.439425 -0.497316,0.528217 -0.914157,0.922941 -0.462573,0.426021 -0.975402,0.787193 -1.497065,1.13688 h 5.144905 z m -1.39423,0.06563 c -0.385532,0.614751 -0.767969,1.231603 -1.175639,1.83193 -0.21141,0.308829 -0.250825,0.393089 -0.507981,0.663009 -0.392761,0.412258 -0.861679,0.747186 -1.307412,1.097608 -0.387668,0.260461 -0.757026,0.546412 -1.107943,0.854212 -0.259853,0.246724 -0.546793,0.445061 -0.876432,0.589111 -0.525492,0.277863 -1.048444,0.558575 -1.603521,0.775663 -0.266414,0.129077 -0.469495,0.238035 -0.756026,0.329695 -0.02873,0.0092 -0.05839,0.0136 -0.08733,0.0217 -0.172151,0.164996 -0.401929,0.27079 -0.687298,0.309025 -0.07885,0.0105 -0.158684,0.0036 -0.238228,0.0052 -0.164116,-0.0046 -0.315881,-0.05483 -0.466119,-0.110069 -0.04587,0.0039 -0.108342,0.0056 -0.159166,0.0098 -0.265263,0.177353 -0.654925,0.370517 -0.777729,0.438735 -0.197321,0.118991 -0.396958,0.232576 -0.602547,0.332795 -7.94e-4,0.08878 0.0024,0.17988 0.0098,0.270267 h 4.132565 c 0.182504,-0.116295 0.365135,-0.232294 0.540533,-0.359151 0.507333,-0.355518 0.435091,-0.30971 0.942062,-0.645438 0.387694,-0.256733 0.792795,-0.501015 1.15497,-0.794266 0.13118,-0.106217 0.253672,-0.222784 0.380338,-0.334346 0.369758,-0.346903 0.456039,-0.412593 0.798918,-0.800986 0.635381,-0.719733 1.145108,-1.527622 1.566312,-2.389518 0.450966,-0.944528 0.08155,-0.159766 0.489376,-1.053166 0.05382,-0.117891 0.116244,-0.231889 0.163814,-0.352433 0.08775,-0.222367 0.135702,-0.45497 0.174667,-0.689364 z m -13.297897,6.508647 c -10e-4,1.24e-4 -0.0021,2.51e-4 -0.0031,5.29e-4 1.05e-4,2.62e-4 4.23e-4,5.29e-4 5.29e-4,0.0011 8.47e-4,-5.29e-4 0.0017,-0.0011 0.0026,-0.0016 z m 1.580265,0.537435 c -0.142671,0.08962 -0.272315,0.202146 -0.415995,0.290422 -0.03574,0.02848 -0.07326,0.05378 -0.109038,0.08216 h 0.54312 c -0.0088,-0.118327 -0.01486,-0.241007 -0.01809,-0.372586 z" />
    </clipPath>
  </defs>
  <g
     inkscape:label="Calque 1"
     inkscape:groupmode="layer"
     id="layer1">
    <path
       style="fill:none;stroke:#000000;stroke-width:1;stroke-dasharray:none"
       id="path1"
       sodipodi:type="arc"
       sodipodi:cx="23.928043"
       sodipodi:cy="37.809963"
       sodipodi:rx="16.283951"
       sodipodi:ry="15.918638"
       sodipodi:start="0"
       sodipodi:end="6.2831608"
       sodipodi:open="true"
       sodipodi:arc-type="arc"
       d="M 40.211994,37.809963 A 16.283951,15.918638 0 0 1 23.928143,53.728601 16.283951,15.918638 0 0 1 7.6440926,37.810158 16.283951,15.918638 0 0 1 23.927744,21.891325 16.283951,15.918638 0 0 1 40.211994,37.809573"
       clip-path="url(#clipPath42)"
       transform="matrix(2.4999989,0,0,2.5254968,-13.512766,-9.2530976)" />
    <path
       style="fill:#ffffff;stroke:#000000;stroke-width:1"
       id="path2"
       sodipodi:type="arc"
       sodipodi:cx="85.666046"
       sodipodi:cy="39.636528"
       sodipodi:rx="1.2785978"
       sodipodi:ry="0.18265682"
       sodipodi:start="0"
       sodipodi:end="0.040984179"
       sodipodi:open="true"
       sodipodi:arc-type="arc"
       d="m 86.944644,39.636528 a 1.2785978,0.18265682 0 0 1 -0.0011,0.0075" />
    <path
       style="fill:#ffffff;stroke:#000000;stroke-width:2.5127"
       d="m 44.010725,46.100582 57.708095,0.173001"
       id="path14"
       sodipodi:nodetypes="cc" />
    <path
       style="fill:#ffffff;stroke:#000000;stroke-width:2.5127;stroke-dasharray:none"
       d="m 100.42607,47.500814 0.0826,-32.324386"
       id="path15"
       sodipodi:nodetypes="cc" />
    <path
       style="fill:#ffffff;stroke:#000000;stroke-width:2.5127"
       d="m 99.2602,16.434263 57.70811,0.172973"
       id="path14-8"
       sodipodi:nodetypes="cc" />
    <path
       style="fill:none;stroke:#000000;stroke-width:1;stroke-dasharray:none"
       id="path16"
       sodipodi:type="arc"
       sodipodi:cx="68.474457"
       sodipodi:cy="40.083748"
       sodipodi:rx="10.196332"
       sodipodi:ry="10.243104"
       sodipodi:start="0"
       sodipodi:end="6.2831608"
       sodipodi:open="true"
       sodipodi:arc-type="arc"
       d="M 78.670789,40.083748 A 10.196332,10.243104 0 0 1 68.474519,50.326852 10.196332,10.243104 0 0 1 58.278125,40.083873 10.196332,10.243104 0 0 1 68.474269,29.840644 10.196332,10.243104 0 0 1 78.670789,40.083497"
       clip-path="url(#clipPath30)"
       transform="matrix(2.4999989,0,0,2.5254968,-15.322367,-58.851973)" />
    <path
       style="fill:#ffffff;stroke:#000000;stroke-width:2.5127;stroke-dasharray:none"
       d="M 44.223381,126.54227 156.34602,68.100679"
       id="path35"
       sodipodi:nodetypes="cc" />
  </g>
</svg>
